<svg id="svg" version="1.1" xmlns="http://www.w3.org/2000/svg" xmlns:xlink="http://www.w3.org/1999/xlink" width="400" height="400" viewBox="0, 0, 400,400"><g id="svgg">
<style>
#path0{
    fill:#e4b04c;
    transition:fill ease-out 0.3s;
 }
#path0:hover{fill:#ffffff}
</style>
<path id="path0" d="M38.842 21.165 C 35.902 21.857,31.250 23.957,31.250 24.591 C 31.250 24.774,32.744 24.245,34.570 23.416 C 36.535 22.525,39.804 21.871,42.578 21.814 C 46.123 21.742,46.789 21.567,45.313 21.094 C 42.862 20.309,42.460 20.313,38.842 21.165 M191.016 21.104 C 187.118 21.457,189.568 21.639,199.544 21.737 C 207.243 21.813,213.395 21.748,213.216 21.593 C 212.523 20.993,196.207 20.633,191.016 21.104 M42.143 22.608 C 38.158 22.944,35.287 23.667,33.309 24.834 C 29.949 26.816,29.374 26.953,30.149 25.586 C 30.454 25.049,29.420 25.821,27.852 27.302 C 25.150 29.852,23.954 31.988,25.902 30.785 C 26.465 30.437,26.592 30.571,26.239 31.142 C 25.928 31.645,25.361 31.864,24.979 31.628 C 21.552 29.510,21.485 31.256,21.468 123.438 L 21.451 210.547 21.858 123.438 C 22.181 54.509,22.475 35.961,23.270 34.570 C 24.788 31.912,24.942 32.450,23.698 36.062 C 22.746 38.825,22.613 52.871,22.813 130.007 C 22.941 179.890,22.841 218.770,22.588 216.406 L 22.130 212.109 22.047 216.016 C 22.002 218.164,22.256 221.328,22.611 223.047 L 23.258 226.172 23.432 223.438 C 23.561 221.400,23.868 222.197,24.634 226.563 C 25.936 233.984,25.921 236.905,24.609 231.250 C 24.061 228.887,23.573 227.572,23.525 228.329 C 23.303 231.809,28.112 250.503,28.901 249.227 C 29.183 248.771,29.794 249.638,30.259 251.153 C 30.724 252.669,30.786 253.711,30.396 253.471 C 30.006 253.230,29.688 252.468,29.688 251.777 C 29.688 251.086,29.467 250.741,29.198 251.010 C 28.648 251.560,32.702 264.023,33.826 265.234 C 34.278 265.722,34.366 265.281,34.060 264.063 C 33.790 262.988,34.454 264.000,35.535 266.311 C 37.845 271.250,38.078 272.659,35.938 268.750 C 32.069 261.683,36.611 272.872,41.262 281.866 C 42.834 284.906,44.136 286.572,44.678 286.237 C 45.203 285.913,45.336 286.048,45.011 286.575 C 44.329 287.678,46.693 292.392,47.636 291.810 C 48.017 291.574,48.584 291.792,48.895 292.295 C 49.248 292.867,49.122 293.001,48.558 292.653 C 47.281 291.863,47.440 293.094,48.882 295.152 C 49.556 296.114,50.430 296.701,50.826 296.457 C 51.221 296.213,51.349 296.523,51.110 297.146 C 50.870 297.769,51.105 298.545,51.630 298.870 C 52.293 299.279,52.390 299.124,51.949 298.363 C 51.578 297.724,51.605 297.533,52.013 297.907 C 52.399 298.259,52.719 299.137,52.724 299.858 C 52.730 300.578,53.145 301.169,53.646 301.170 C 54.147 301.171,54.850 301.492,55.208 301.883 C 55.587 302.296,55.450 302.359,54.883 302.032 C 53.427 301.195,53.703 302.768,55.228 304.006 C 56.354 304.919,56.452 304.915,55.889 303.981 C 55.449 303.252,55.519 303.064,56.095 303.420 C 56.572 303.715,56.787 304.416,56.571 304.978 C 56.355 305.540,56.790 306.495,57.536 307.101 C 58.718 308.061,58.804 308.052,58.203 307.031 C 57.607 306.020,57.694 306.007,58.834 306.932 C 60.265 308.092,60.647 308.989,59.375 308.203 C 58.055 307.388,58.511 309.116,59.916 310.256 C 61.055 311.180,61.144 311.167,60.563 310.156 C 60.141 309.424,60.524 309.543,61.584 310.473 C 63.480 312.135,63.947 313.244,62.109 311.719 C 58.506 308.728,62.001 313.253,69.210 320.911 C 84.716 337.383,102.644 350.665,122.225 360.185 C 132.172 365.021,148.007 371.157,150.271 371.052 C 150.766 371.029,146.826 369.476,141.514 367.600 C 116.918 358.917,94.229 344.762,75.671 326.525 L 68.359 319.340 75.770 326.213 C 142.093 387.728,236.714 393.698,306.641 340.781 C 309.219 338.830,310.810 337.864,310.176 338.635 C 308.650 340.492,294.635 350.185,288.477 353.643 C 285.791 355.151,283.594 356.564,283.594 356.782 C 283.594 358.173,303.781 344.947,312.109 338.100 C 323.143 329.029,343.576 307.425,338.086 310.635 C 337.549 310.949,337.779 310.443,338.598 309.509 C 340.374 307.485,341.267 307.231,339.758 309.180 C 338.896 310.293,339.023 310.270,340.443 309.059 C 342.290 307.483,342.865 305.751,341.211 306.744 C 340.547 307.143,340.578 306.908,341.307 306.009 C 342.556 304.470,343.329 304.241,342.474 305.664 C 342.076 306.328,342.311 306.297,343.209 305.568 C 344.687 304.370,345.037 302.720,343.629 303.590 C 343.066 303.938,342.940 303.804,343.293 303.233 C 343.604 302.730,344.147 302.497,344.500 302.715 C 345.335 303.231,347.855 299.391,347.285 298.469 C 347.046 298.082,347.261 297.510,347.764 297.199 C 348.390 296.812,348.470 296.980,348.018 297.731 C 347.454 298.665,347.552 298.669,348.678 297.756 C 350.156 296.557,350.506 294.907,349.098 295.778 C 348.535 296.126,348.408 295.992,348.761 295.420 C 349.072 294.917,349.639 294.699,350.021 294.935 C 350.911 295.485,353.346 290.833,352.708 289.801 C 352.444 289.374,352.693 289.120,353.262 289.238 C 355.474 289.697,372.581 251.226,370.908 249.554 C 370.699 249.345,370.080 250.775,369.532 252.732 C 368.984 254.689,368.250 256.467,367.902 256.682 C 367.553 256.898,367.831 255.421,368.519 253.401 C 369.208 251.381,370.574 246.713,371.557 243.028 C 372.539 239.343,373.360 237.031,373.382 237.891 C 373.403 238.750,372.897 241.179,372.257 243.288 C 371.617 245.398,371.126 247.507,371.165 247.976 C 371.285 249.408,374.083 239.877,374.553 236.434 C 374.889 233.979,374.808 233.578,374.218 234.766 C 373.335 236.542,373.401 235.901,375.140 225.781 C 376.227 219.458,376.562 186.767,375.645 176.563 C 375.301 172.730,375.358 171.514,375.811 173.047 C 377.137 177.534,375.764 167.090,374.116 160.156 C 371.833 150.547,371.793 150.431,371.117 151.525 C 370.714 152.178,370.396 151.964,370.103 150.846 C 369.869 149.950,369.996 149.414,370.385 149.654 C 371.327 150.236,371.272 147.579,370.313 146.094 C 369.639 145.052,369.548 145.052,369.488 146.094 C 369.443 146.883,369.202 146.756,368.750 145.703 C 367.813 143.521,367.834 142.344,368.786 143.750 C 370.020 145.574,368.768 140.809,367.042 137.109 C 366.239 135.391,365.769 134.688,365.996 135.547 C 366.404 137.087,366.393 137.087,365.236 135.593 C 364.516 134.662,364.361 133.892,364.836 133.599 C 365.680 133.077,363.119 126.671,358.339 117.352 C 356.515 113.797,355.089 111.861,354.542 112.200 C 354.016 112.525,353.882 112.390,354.208 111.862 C 354.890 110.760,352.526 106.045,351.583 106.628 C 351.202 106.864,350.635 106.645,350.324 106.142 C 349.950 105.538,350.099 105.438,350.762 105.847 C 351.431 106.261,351.645 106.106,351.403 105.382 C 351.204 104.785,350.661 104.297,350.195 104.297 C 349.730 104.297,349.056 103.977,348.698 103.586 C 348.314 103.166,348.488 103.130,349.125 103.499 C 349.862 103.926,350.088 103.781,349.841 103.038 C 349.642 102.442,349.098 101.953,348.633 101.953 C 348.167 101.953,347.493 101.633,347.135 101.242 C 346.751 100.822,346.926 100.787,347.562 101.155 C 348.300 101.583,348.526 101.437,348.278 100.695 C 348.079 100.098,347.536 99.609,347.070 99.609 C 346.605 99.609,345.931 99.289,345.573 98.898 C 345.195 98.485,345.331 98.422,345.898 98.749 C 347.354 99.587,347.079 98.013,345.553 96.775 C 344.655 96.047,344.419 96.016,344.818 96.680 C 345.673 98.103,344.899 97.874,343.650 96.334 C 342.741 95.213,342.741 95.111,343.656 95.662 C 344.405 96.113,344.614 95.980,344.340 95.226 C 344.123 94.629,343.584 94.217,343.141 94.311 C 342.699 94.405,341.864 93.877,341.286 93.139 C 340.337 91.928,340.368 91.902,341.602 92.869 C 343.579 94.420,343.286 92.708,341.272 90.941 C 340.339 90.123,339.832 89.893,340.146 90.430 C 340.976 91.849,340.213 91.626,338.963 90.084 C 338.053 88.963,338.054 88.861,338.969 89.412 C 343.883 92.372,327.215 73.990,317.102 65.298 C 309.381 58.660,299.046 50.855,295.313 48.840 C 293.066 47.628,295.653 49.694,301.172 53.520 C 309.606 59.365,317.582 66.272,326.563 75.505 C 334.178 83.334,334.010 83.208,324.219 73.739 C 271.924 23.171,199.738 8.907,132.031 35.762 C 130.957 36.188,127.819 37.632,125.057 38.971 C 122.295 40.311,119.658 41.405,119.197 41.403 C 117.151 41.395,131.741 34.951,143.750 30.559 C 146.113 29.695,147.592 28.969,147.036 28.947 C 143.860 28.819,117.840 40.080,118.175 41.437 C 118.276 41.848,115.723 43.615,112.500 45.364 C 109.210 47.149,107.497 47.806,108.594 46.862 L 110.547 45.179 107.320 46.900 C 105.546 47.846,103.085 49.487,101.852 50.546 L 99.609 52.473 101.953 50.974 C 108.022 47.093,107.427 48.079,100.975 52.596 C 96.151 55.973,96.002 55.997,94.066 53.711 C 92.580 51.955,92.580 51.955,94.202 53.320 C 96.227 55.025,97.173 55.040,98.537 53.390 C 99.508 52.216,99.457 52.187,98.003 53.093 C 96.555 53.994,95.630 53.520,88.628 48.282 C 70.452 34.686,50.856 21.720,48.894 21.993 C 48.428 22.058,45.390 22.335,42.143 22.608 M174.219 22.681 C 172.591 23.039,174.014 23.112,177.734 22.864 C 181.172 22.634,184.131 22.317,184.310 22.160 C 184.885 21.656,177.046 22.060,174.219 22.681 M214.909 22.160 C 215.088 22.317,218.047 22.640,221.484 22.877 C 225.973 23.186,226.854 23.119,224.609 22.636 C 221.503 21.969,214.287 21.615,214.909 22.160 M51.797 23.945 C 55.287 25.744,69.531 35.025,69.531 35.501 C 69.531 35.715,65.963 33.576,61.602 30.746 C 57.241 27.916,52.232 24.946,50.469 24.146 C 48.707 23.345,47.723 22.683,48.281 22.673 C 48.839 22.664,50.421 23.236,51.797 23.945 M166.016 23.952 C 163.909 24.402,151.531 27.388,149.746 27.877 C 148.961 28.092,148.480 28.428,148.677 28.625 C 148.873 28.821,152.503 28.097,156.743 27.015 C 160.984 25.933,166.035 24.724,167.969 24.327 C 169.902 23.930,170.605 23.608,169.531 23.612 C 168.457 23.616,166.875 23.769,166.016 23.952 M234.375 24.992 C 238.027 25.764,242.070 26.658,243.359 26.980 C 244.648 27.301,245.450 27.291,245.141 26.957 C 244.475 26.237,231.545 23.437,229.297 23.526 C 228.437 23.560,230.723 24.219,234.375 24.992 M246.159 27.624 C 246.338 27.779,247.539 28.141,248.828 28.429 C 250.540 28.812,250.856 28.740,250.000 28.161 C 248.945 27.447,245.375 26.948,246.159 27.624 M252.734 29.688 C 253.594 30.057,254.824 30.359,255.469 30.359 C 256.207 30.359,256.063 30.111,255.078 29.688 C 254.219 29.318,252.988 29.016,252.344 29.016 C 251.605 29.016,251.750 29.264,252.734 29.688 M257.096 30.790 C 257.275 30.967,261.041 32.552,265.464 34.313 C 269.887 36.074,275.951 38.746,278.940 40.251 C 281.929 41.757,284.375 42.813,284.375 42.598 C 284.375 41.925,273.852 36.872,265.643 33.601 C 258.266 30.662,256.318 30.021,257.096 30.790 M83.789 45.531 C 88.408 48.919,92.188 51.869,92.188 52.085 C 92.188 52.302,90.693 51.363,88.867 50.000 C 87.041 48.637,82.119 45.057,77.930 42.046 C 73.740 39.035,70.313 36.405,70.313 36.201 C 70.313 35.751,72.876 37.526,83.789 45.531 M113.867 43.022 C 112.256 43.873,110.938 44.743,110.938 44.956 C 110.938 45.170,112.344 44.627,114.063 43.750 C 115.781 42.873,117.188 41.987,117.188 41.781 C 117.188 41.270,117.182 41.272,113.867 43.022 M285.547 43.535 C 285.977 43.942,288.086 45.233,290.234 46.405 C 292.383 47.577,293.438 47.959,292.578 47.254 C 290.830 45.819,284.322 42.378,285.547 43.535 M291.736 121.068 C 309.734 128.782,317.755 150.051,309.176 167.313 C 304.837 176.043,197.763 282.876,189.929 286.291 C 179.620 290.785,166.505 289.706,157.204 283.598 C 148.613 277.957,92.843 220.760,90.317 214.999 C 79.759 190.927,95.166 166.797,121.094 166.797 C 135.230 166.797,136.736 167.705,158.401 189.284 L 175.787 206.601 216.995 165.511 C 254.116 128.498,258.711 124.176,263.320 121.946 C 271.783 117.852,283.397 117.493,291.736 121.068 M367.907 141.360 C 367.854 142.412,367.786 142.419,367.411 141.406 C 367.172 140.762,366.653 139.531,366.258 138.672 C 365.550 137.134,365.558 137.134,366.754 138.626 C 367.422 139.460,367.941 140.690,367.907 141.360 M373.767 161.966 C 374.445 164.891,374.973 168.054,374.940 168.994 C 374.890 170.438,372.023 158.803,371.913 156.706 C 371.811 154.784,372.658 157.185,373.767 161.966 M376.953 199.609 C 376.953 212.500,377.191 221.465,377.481 219.531 C 377.772 217.598,378.009 208.633,378.009 199.609 C 378.009 190.586,377.772 181.621,377.481 179.688 C 377.191 177.754,376.953 186.719,376.953 199.609 M375.421 227.764 C 375.118 230.184,375.033 232.325,375.232 232.523 C 375.430 232.722,375.840 230.905,376.142 228.486 C 376.444 226.066,376.529 223.925,376.331 223.727 C 376.132 223.528,375.723 225.345,375.421 227.764 M28.809 247.266 C 28.696 248.588,26.682 241.898,26.692 240.234 C 26.698 239.375,27.191 240.430,27.789 242.578 C 28.387 244.727,28.846 246.836,28.809 247.266 M66.406 316.016 C 67.864 317.520,68.881 318.750,68.666 318.750 C 68.451 318.750,67.083 317.520,65.625 316.016 C 64.167 314.512,63.151 313.281,63.365 313.281 C 63.580 313.281,64.949 314.512,66.406 316.016 M333.594 316.616 C 333.594 316.731,329.814 320.510,325.195 325.014 L 316.797 333.203 324.986 324.805 C 332.592 317.004,333.594 316.051,333.594 316.616 M316.341 333.789 C 316.162 333.896,314.961 334.863,313.672 335.938 L 311.328 337.891 313.222 335.742 C 314.264 334.561,315.465 333.594,315.891 333.594 C 316.318 333.594,316.520 333.682,316.341 333.789 M272.266 362.058 C 270.117 363.093,268.578 363.967,268.846 364.001 C 269.562 364.092,276.563 360.925,276.563 360.510 C 276.563 359.993,276.523 360.007,272.266 362.058 M264.844 364.998 C 263.770 365.458,259.551 366.999,255.469 368.422 C 251.387 369.846,248.677 371.029,249.448 371.052 C 250.800 371.092,264.794 366.143,267.188 364.778 C 268.835 363.839,267.191 363.993,264.844 364.998 M152.734 371.875 C 153.594 372.244,155.000 372.536,155.859 372.523 C 157.115 372.505,157.039 372.378,155.469 371.875 C 152.798 371.020,150.744 371.020,152.734 371.875 M243.359 371.960 C 240.082 372.983,226.100 375.759,223.575 375.888 C 221.702 375.983,221.669 376.030,223.265 376.336 C 225.763 376.815,246.293 372.718,247.514 371.496 C 248.114 370.896,246.017 371.130,243.359 371.960 M157.813 372.968 C 157.813 373.487,168.839 375.710,173.438 376.120 L 177.734 376.502 173.438 375.714 C 171.074 375.281,166.786 374.415,163.908 373.791 C 158.220 372.557,157.813 372.502,157.813 372.968 M182.422 377.471 C 187.426 378.134,211.565 378.127,217.188 377.462 C 219.551 377.182,211.816 376.953,200.000 376.953 C 188.184 376.953,180.273 377.186,182.422 377.471 " stroke="none" fill="#000000" fill-rule="evenodd"></path></g></svg>