<svg id="svg" version="1.1" xmlns="http://www.w3.org/2000/svg" xmlns:xlink="http://www.w3.org/1999/xlink" width="400" height="400" viewBox="0, 0, 400,400">
<style>
#path0{
    fill:#e4b04c;
    transition:fill ease-out 0.3s;
 }
#path0:hover{fill:#ffffff}
</style>
<g id="svgg"><path id="path0" d="M184.766 0.392 C 185.195 0.540,193.984 0.788,204.297 0.944 C 214.609 1.100,220.938 0.989,218.359 0.698 C 213.648 0.167,183.305 -0.110,184.766 0.392 M170.703 1.997 L 165.234 3.027 169.922 2.577 C 172.500 2.329,176.719 1.872,179.297 1.561 L 183.984 0.995 180.078 0.981 C 177.930 0.973,173.711 1.430,170.703 1.997 M182.031 2.046 C 144.553 6.564,115.542 16.826,88.118 35.266 C 84.341 37.806,81.250 39.693,81.250 39.460 C 81.250 39.227,85.029 36.548,89.648 33.507 C 98.713 27.539,100.137 26.467,96.484 28.359 C 85.499 34.050,65.147 50.442,52.281 63.962 C 43.941 72.726,40.554 77.061,44.336 74.133 C 45.449 73.271,45.426 73.398,44.215 74.818 C 42.589 76.723,41.761 77.134,42.666 75.586 C 42.980 75.049,42.474 75.279,41.541 76.098 C 39.525 77.865,39.236 79.568,41.211 78.039 C 42.324 77.177,42.301 77.304,41.090 78.724 C 39.468 80.625,38.622 81.049,39.557 79.492 C 39.956 78.829,39.720 78.859,38.822 79.588 C 37.344 80.787,36.994 82.436,38.402 81.566 C 38.978 81.210,39.091 81.353,38.714 81.963 C 38.390 82.487,37.929 82.720,37.689 82.481 C 37.128 81.919,35.156 83.543,35.156 84.566 C 35.156 84.996,35.771 84.865,36.523 84.275 C 37.757 83.308,37.788 83.334,36.839 84.545 C 36.261 85.284,35.426 85.811,34.984 85.717 C 34.541 85.624,34.002 86.035,33.785 86.632 C 33.514 87.379,33.727 87.523,34.469 87.093 C 35.105 86.724,35.280 86.760,34.896 87.179 C 34.538 87.571,33.864 87.891,33.398 87.891 C 32.933 87.891,32.389 88.379,32.190 88.976 C 31.943 89.718,32.169 89.864,32.906 89.437 C 33.543 89.068,33.718 89.103,33.333 89.523 C 32.975 89.914,32.301 90.234,31.836 90.234 C 31.370 90.234,30.827 90.723,30.628 91.320 C 30.380 92.062,30.607 92.208,31.344 91.780 C 31.980 91.412,32.155 91.447,31.771 91.867 C 31.413 92.258,30.739 92.578,30.273 92.578 C 29.808 92.578,29.264 93.067,29.065 93.663 C 28.824 94.387,29.038 94.542,29.707 94.129 C 30.370 93.719,30.518 93.819,30.145 94.423 C 29.834 94.926,29.270 95.147,28.891 94.913 C 28.513 94.679,27.834 95.177,27.383 96.021 C 26.316 98.014,26.344 98.665,27.464 97.972 C 28.028 97.624,28.154 97.758,27.801 98.330 C 27.490 98.833,26.922 99.050,26.538 98.813 C 25.596 98.231,22.456 104.513,23.138 105.616 C 23.461 106.139,23.327 106.274,22.805 105.951 C 21.851 105.362,19.766 109.117,14.922 120.151 C 11.042 128.988,10.247 131.513,12.041 129.297 C 13.241 127.815,13.258 127.856,12.364 130.078 C 11.356 132.587,9.693 134.959,10.584 132.617 C 10.870 131.865,10.909 131.250,10.670 131.250 C 10.037 131.250,4.568 148.470,4.892 149.442 C 5.043 149.894,5.801 147.914,6.578 145.044 C 7.355 142.174,8.251 139.665,8.568 139.469 C 8.885 139.273,8.183 142.353,7.008 146.314 C 5.832 150.275,4.667 154.219,4.419 155.078 C 4.170 155.938,4.123 155.234,4.315 153.516 C 4.565 151.263,4.471 150.837,3.977 151.990 C 2.965 154.354,0.620 166.314,0.966 167.350 C 1.129 167.841,1.718 165.698,2.274 162.587 C 2.830 159.476,3.454 157.100,3.660 157.306 C 3.867 157.513,3.480 160.436,2.801 163.802 C 0.155 176.911,-1.142 222.500,0.893 230.859 C 1.234 232.262,1.327 231.163,1.124 228.125 C 0.837 223.834,1.028 224.379,2.356 231.641 C 4.049 240.897,7.549 254.597,10.125 262.042 C 11.004 264.583,11.568 266.817,11.379 267.007 C 10.852 267.534,5.692 250.629,3.564 241.406 C 2.523 236.895,1.647 233.979,1.617 234.927 C 1.267 245.995,24.334 304.296,28.134 301.948 C 28.499 301.722,29.053 301.949,29.364 302.452 C 29.717 303.023,29.590 303.157,29.027 302.809 C 27.906 302.116,27.879 302.768,28.945 304.761 C 29.397 305.604,30.076 306.102,30.454 305.869 C 30.832 305.635,31.396 305.855,31.707 306.358 C 32.081 306.962,31.932 307.062,31.269 306.653 C 30.601 306.239,30.387 306.394,30.628 307.118 C 30.827 307.715,31.370 308.203,31.836 308.203 C 32.301 308.203,32.975 308.523,33.333 308.914 C 33.718 309.334,33.543 309.370,32.906 309.001 C 32.165 308.571,31.952 308.715,32.223 309.462 C 32.440 310.058,32.979 310.470,33.421 310.377 C 33.863 310.283,34.698 310.810,35.277 311.548 C 36.225 312.759,36.194 312.786,34.961 311.818 C 34.209 311.229,33.594 311.098,33.594 311.527 C 33.594 312.398,35.916 314.526,36.644 314.323 C 36.900 314.251,37.285 314.396,37.500 314.643 C 37.715 314.891,37.406 314.813,36.813 314.470 C 36.071 314.040,35.858 314.184,36.129 314.930 C 36.346 315.527,36.885 315.939,37.327 315.845 C 37.770 315.752,38.605 316.279,39.183 317.017 C 40.132 318.228,40.101 318.255,38.867 317.287 C 36.890 315.737,37.183 317.448,39.197 319.215 C 40.271 320.157,40.652 320.273,40.234 319.531 C 39.817 318.789,40.197 318.905,41.272 319.848 C 43.167 321.510,43.634 322.619,41.797 321.094 C 39.940 319.553,40.436 321.467,42.322 323.121 C 43.396 324.064,43.777 324.180,43.359 323.438 C 42.942 322.695,43.322 322.811,44.397 323.754 C 46.292 325.416,46.759 326.525,44.922 325.000 C 42.427 322.929,43.905 325.618,46.663 328.167 C 48.487 329.853,49.003 330.129,48.042 328.906 C 46.750 327.261,46.907 327.315,49.036 329.248 C 51.559 331.539,52.609 333.091,50.391 331.250 C 49.746 330.715,49.219 330.626,49.219 331.052 C 49.219 332.270,65.358 347.550,73.495 354.037 C 81.914 360.748,89.194 365.793,87.575 363.794 C 86.971 363.049,90.311 364.772,94.996 367.622 C 153.916 403.465,221.885 407.098,287.109 377.889 C 305.471 369.667,306.157 369.601,318.480 374.870 C 345.248 386.315,382.480 390.467,396.484 383.569 C 398.985 382.338,399.235 382.303,397.736 383.398 C 396.705 384.150,394.771 385.208,393.439 385.749 L 391.016 386.733 393.312 386.283 C 398.166 385.333,399.784 383.334,399.816 378.249 L 399.845 373.641 390.820 364.438 C 385.856 359.377,382.085 355.728,382.438 356.329 C 382.792 356.930,382.318 356.752,381.384 355.934 C 379.489 354.271,379.022 353.162,380.859 354.688 C 381.513 355.230,382.031 355.315,382.031 354.879 C 382.031 354.001,379.632 351.810,379.112 352.214 C 378.927 352.357,378.542 352.213,378.255 351.893 C 377.969 351.573,378.219 351.593,378.812 351.937 C 379.550 352.364,379.776 352.218,379.528 351.476 C 379.329 350.879,378.786 350.391,378.320 350.391 C 377.855 350.391,377.181 350.071,376.823 349.679 C 376.445 349.266,376.581 349.204,377.148 349.530 C 378.535 350.328,378.383 349.677,376.165 345.300 C 368.271 329.720,370.395 311.509,383.467 282.723 C 390.228 267.832,395.340 252.635,397.916 239.759 C 400.890 224.901,400.886 174.072,397.910 159.766 C 394.230 142.079,380.983 107.029,378.208 107.637 C 377.669 107.755,377.443 107.503,377.706 107.077 C 378.345 106.043,375.132 99.826,374.243 100.376 C 373.859 100.613,373.291 100.395,372.980 99.892 C 372.627 99.321,372.753 99.187,373.317 99.535 C 374.438 100.228,374.465 99.576,373.398 97.583 C 372.947 96.740,372.268 96.241,371.890 96.475 C 371.511 96.709,370.947 96.489,370.636 95.986 C 370.263 95.382,370.412 95.282,371.074 95.691 C 371.743 96.105,371.957 95.949,371.716 95.226 C 371.517 94.629,370.973 94.141,370.508 94.141 C 370.042 94.141,369.368 93.821,369.010 93.429 C 368.626 93.010,368.801 92.974,369.437 93.343 C 370.175 93.770,370.401 93.625,370.153 92.882 C 369.954 92.285,369.411 91.797,368.945 91.797 C 368.480 91.797,367.806 91.477,367.448 91.086 C 367.064 90.666,367.238 90.630,367.875 90.999 C 368.612 91.426,368.838 91.281,368.591 90.538 C 368.392 89.942,367.848 89.453,367.383 89.453 C 366.917 89.453,366.243 89.133,365.885 88.742 C 365.501 88.322,365.676 88.287,366.312 88.655 C 367.050 89.083,367.276 88.937,367.028 88.195 C 366.829 87.598,366.286 87.109,365.820 87.109 C 365.355 87.109,364.681 86.789,364.323 86.398 C 363.939 85.978,364.113 85.943,364.750 86.312 C 365.491 86.741,365.705 86.598,365.433 85.851 C 365.217 85.254,364.677 84.842,364.235 84.936 C 363.793 85.030,362.958 84.502,362.380 83.764 C 361.431 82.553,361.462 82.527,362.695 83.494 C 363.447 84.084,364.063 84.215,364.063 83.785 C 364.063 82.794,362.099 81.130,361.563 81.666 C 361.341 81.888,360.671 81.445,360.072 80.683 C 359.083 79.423,359.108 79.394,360.352 80.369 C 362.329 81.920,362.036 80.208,360.022 78.441 C 359.089 77.623,358.582 77.393,358.896 77.930 C 359.726 79.349,358.963 79.126,357.713 77.584 C 356.984 76.686,356.954 76.451,357.617 76.849 C 358.154 77.172,358.594 77.107,358.594 76.704 C 358.594 75.765,356.619 74.110,356.108 74.621 C 355.894 74.835,355.048 74.222,354.227 73.260 C 353.019 71.845,352.995 71.713,354.102 72.570 C 357.011 74.823,355.222 72.256,349.512 65.983 C 346.236 62.384,343.160 59.513,342.676 59.603 C 342.193 59.692,341.870 59.372,341.958 58.890 C 342.113 58.053,335.394 51.749,326.845 44.711 C 322.788 41.372,321.295 40.595,322.369 42.383 C 322.768 43.046,322.533 43.016,321.634 42.287 C 320.136 41.072,319.846 40.245,321.214 41.090 C 321.747 41.420,321.905 41.306,321.600 40.813 C 321.038 39.902,304.723 28.945,301.563 27.354 C 298.096 25.610,300.993 27.753,308.203 32.268 C 312.070 34.689,316.289 37.561,317.578 38.649 C 318.867 39.738,315.879 37.971,310.938 34.722 C 287.247 19.149,257.342 7.767,228.906 3.501 C 220.321 2.213,188.770 1.234,182.031 2.046 M226.563 2.384 C 231.277 3.222,234.972 3.150,230.859 2.299 C 229.141 1.943,226.680 1.676,225.391 1.705 C 223.633 1.745,223.926 1.915,226.563 2.384 M151.172 5.813 C 141.629 8.276,136.267 9.994,137.769 10.107 C 138.132 10.134,140.769 9.449,143.629 8.585 C 146.488 7.720,152.520 6.163,157.031 5.124 C 161.543 4.084,164.355 3.225,163.281 3.213 C 162.207 3.202,156.758 4.372,151.172 5.813 M240.234 4.711 C 243.672 5.508,247.012 6.140,247.656 6.115 C 249.535 6.043,238.093 3.252,235.938 3.257 C 234.863 3.259,236.797 3.913,240.234 4.711 M250.391 6.926 C 251.250 7.302,253.184 7.833,254.688 8.106 C 256.565 8.446,256.932 8.387,255.859 7.918 C 255.000 7.542,253.066 7.011,251.563 6.738 C 249.685 6.398,249.318 6.457,250.391 6.926 M265.625 11.582 C 278.021 16.179,281.180 17.529,290.580 22.243 C 295.331 24.626,299.219 26.378,299.219 26.138 C 299.219 24.640,266.300 10.358,259.766 9.020 C 258.477 8.756,261.113 9.909,265.625 11.582 M127.734 13.183 C 121.485 15.566,110.327 20.787,114.844 19.215 C 116.296 18.710,133.407 11.871,135.547 10.941 C 139.906 9.047,134.563 10.580,127.734 13.183 M109.180 21.147 C 107.568 21.998,106.250 22.868,106.250 23.081 C 106.250 23.429,112.421 20.546,113.216 19.826 C 114.115 19.012,111.768 19.780,109.180 21.147 M102.148 25.053 C 100.537 25.904,99.219 26.774,99.219 26.988 C 99.219 27.201,100.625 26.658,102.344 25.781 C 104.062 24.904,105.469 24.018,105.469 23.812 C 105.469 23.301,105.463 23.303,102.148 25.053 M228.125 31.616 C 338.083 48.482,403.481 168.400,357.449 268.750 C 345.873 293.985,340.187 316.879,342.100 330.547 C 342.879 336.110,346.744 352.056,347.999 354.886 C 348.700 356.467,335.759 352.310,328.557 348.640 C 312.631 340.528,299.268 341.553,274.462 352.789 C 207.194 383.262,133.352 371.342,80.543 321.484 C 34.279 277.806,15.899 208.089,35.230 149.609 C 62.491 67.143,142.133 18.426,228.125 31.616 M80.469 40.119 C 80.469 40.271,78.271 42.112,75.586 44.211 C 72.900 46.311,69.121 49.436,67.188 51.157 C 65.254 52.878,64.375 53.448,65.234 52.423 C 67.460 49.770,80.469 39.263,80.469 40.119 M334.818 52.734 C 339.557 57.398,339.559 57.402,335.220 53.512 C 332.822 51.362,329.102 48.075,326.953 46.209 C 323.182 42.932,323.168 42.905,326.550 45.431 C 328.477 46.870,332.198 50.156,334.818 52.734 M63.281 54.123 C 63.281 54.241,60.732 56.790,57.617 59.787 L 51.953 65.234 57.401 59.570 C 62.461 54.310,63.281 53.549,63.281 54.123 M352.344 70.085 C 352.344 70.671,351.642 70.051,348.405 66.602 L 344.922 62.891 348.633 66.374 C 350.674 68.289,352.344 69.959,352.344 70.085 M51.563 66.644 C 51.563 66.774,50.244 68.093,48.633 69.573 L 45.703 72.266 48.395 69.336 C 50.901 66.609,51.563 66.047,51.563 66.644 M214.057 114.774 C 195.571 120.570,194.142 147.621,211.931 155.054 C 216.613 157.010,271.018 156.782,275.408 154.788 C 290.510 147.928,291.028 124.075,276.246 116.165 C 272.884 114.366,219.190 113.165,214.057 114.774 M16.053 121.021 C 14.337 124.340,13.780 124.082,15.387 120.713 C 16.102 119.214,16.825 118.127,16.995 118.297 C 17.164 118.466,16.740 119.692,16.053 121.021 M385.872 123.828 C 385.872 124.258,385.198 123.379,384.375 121.875 C 383.552 120.371,382.878 118.789,382.878 118.359 C 382.878 117.930,383.552 118.809,384.375 120.313 C 385.198 121.816,385.872 123.398,385.872 123.828 M389.885 134.093 C 390.316 135.227,390.524 136.299,390.347 136.476 C 390.169 136.654,389.650 135.726,389.193 134.415 C 388.178 131.501,388.791 131.215,389.885 134.093 M393.631 146.094 C 393.631 146.738,393.157 146.035,392.578 144.531 C 391.999 143.027,391.525 141.270,391.525 140.625 C 391.525 139.980,391.999 140.684,392.578 142.188 C 393.157 143.691,393.631 145.449,393.631 146.094 M397.327 160.774 C 398.412 166.135,399.154 171.265,398.975 172.174 C 398.694 173.607,398.635 173.567,398.536 171.875 C 398.440 170.252,396.832 161.973,394.211 149.609 C 393.754 147.456,393.781 147.419,394.534 149.147 C 394.985 150.181,396.241 155.414,397.327 160.774 M128.713 178.919 C 109.737 182.185,106.314 209.664,123.723 218.975 L 126.953 220.703 199.609 220.703 L 272.266 220.703 275.542 218.952 C 291.226 210.568,290.469 187.150,274.276 179.785 C 271.180 178.377,136.518 177.576,128.713 178.919 M397.627 237.289 C 395.716 246.766,391.050 263.547,389.781 265.506 C 389.066 266.609,389.017 266.569,389.445 265.234 C 393.475 252.645,398.286 232.707,398.544 227.527 C 398.634 225.709,398.700 225.650,398.987 227.132 C 399.172 228.090,398.560 232.661,397.627 237.289 M124.496 244.099 C 107.310 251.577,108.845 279.325,126.720 284.305 C 132.885 286.023,184.793 285.140,188.596 283.253 C 204.211 275.505,203.645 250.774,187.701 244.112 C 183.818 242.489,128.221 242.478,124.496 244.099 M385.394 276.943 C 384.680 278.442,383.956 279.529,383.787 279.360 C 383.429 279.002,385.801 274.219,386.336 274.219 C 386.532 274.219,386.109 275.445,385.394 276.943 M373.257 306.836 C 371.199 313.915,370.537 330.752,372.091 336.494 C 372.697 338.734,372.920 340.398,372.587 340.191 C 369.019 337.986,370.023 308.500,373.879 302.261 C 374.868 300.661,374.706 301.851,373.257 306.836 M58.203 339.063 C 60.754 341.641,62.666 343.750,62.451 343.750 C 62.236 343.750,59.973 341.641,57.422 339.063 C 54.871 336.484,52.959 334.375,53.174 334.375 C 53.389 334.375,55.652 336.484,58.203 339.063 M66.797 346.875 C 68.475 348.594,69.673 350.000,69.458 350.000 C 69.243 350.000,67.694 348.594,66.016 346.875 C 64.337 345.156,63.140 343.750,63.355 343.750 C 63.570 343.750,65.119 345.156,66.797 346.875 M84.051 360.783 C 85.303 361.773,84.219 361.162,81.641 359.426 C 79.063 357.690,75.371 354.841,73.438 353.094 C 70.313 350.271,75.525 354.048,84.051 360.783 M399.219 374.009 C 399.219 374.574,398.217 373.621,390.611 365.820 L 382.422 357.422 390.820 365.611 C 395.439 370.115,399.219 373.894,399.219 374.009 M89.063 365.074 C 89.063 365.481,97.203 370.770,100.586 372.562 C 104.119 374.433,102.219 372.765,97.852 370.161 C 95.381 368.688,92.393 366.849,91.211 366.074 C 90.029 365.298,89.063 364.849,89.063 365.074 M301.563 372.408 C 298.401 373.514,282.798 380.715,283.040 380.956 C 283.192 381.109,287.325 379.414,292.223 377.190 C 304.632 371.556,306.990 371.444,317.388 375.998 C 325.498 379.550,339.918 384.406,342.156 384.339 C 342.818 384.320,339.402 383.088,334.566 381.602 C 329.730 380.116,322.181 377.320,317.791 375.388 C 310.088 371.997,305.267 371.112,301.563 372.408 M103.125 373.946 C 103.125 374.464,122.710 383.800,123.061 383.449 C 123.215 383.295,118.792 381.009,113.233 378.368 C 107.674 375.727,103.125 373.737,103.125 373.946 M278.906 382.422 C 277.832 383.036,277.305 383.538,277.734 383.538 C 278.164 383.538,279.395 383.036,280.469 382.422 C 281.543 381.808,282.070 381.305,281.641 381.305 C 281.211 381.305,279.980 381.808,278.906 382.422 M125.000 384.241 C 128.302 386.397,155.186 394.616,158.484 394.478 C 159.189 394.448,155.898 393.420,151.172 392.192 C 146.445 390.964,139.063 388.728,134.766 387.221 C 123.938 383.425,123.586 383.318,125.000 384.241 M271.265 385.350 C 268.996 386.220,267.280 387.072,267.452 387.243 C 267.815 387.607,276.563 384.424,276.563 383.928 C 276.563 383.415,275.731 383.638,271.265 385.350 M345.587 385.177 C 346.813 385.544,349.801 386.028,352.228 386.251 C 356.572 386.651,356.556 386.640,351.172 385.564 C 345.102 384.351,342.148 384.146,345.587 385.177 M358.800 387.279 C 359.987 387.459,361.745 387.454,362.706 387.269 C 363.667 387.083,362.695 386.936,360.547 386.942 C 358.398 386.948,357.612 387.100,358.800 387.279 M374.609 387.500 L 364.453 387.962 373.828 388.053 C 378.984 388.103,384.961 387.871,387.109 387.536 C 391.879 386.793,390.245 386.788,374.609 387.500 M255.078 390.687 C 245.203 393.809,227.247 396.856,212.500 397.913 C 209.328 398.140,209.419 398.178,213.437 398.301 C 219.323 398.481,234.319 396.481,244.531 394.154 C 253.062 392.209,262.974 389.223,260.938 389.212 C 260.293 389.208,257.656 389.872,255.078 390.687 M162.109 395.313 C 163.398 395.641,165.332 395.909,166.406 395.909 C 168.148 395.909,168.106 395.844,166.016 395.313 C 164.727 394.984,162.793 394.716,161.719 394.716 C 159.977 394.716,160.019 394.781,162.109 395.313 M171.484 396.840 C 176.247 397.893,198.174 399.382,203.906 399.041 C 208.512 398.767,208.330 398.723,201.953 398.576 C 195.789 398.433,184.966 397.679,172.266 396.508 C 168.494 396.160,168.467 396.172,171.484 396.840 " stroke="none" fill="#000000" fill-rule="evenodd"></path></g></svg>