<svg id="svg" version="1.1" xmlns="http://www.w3.org/2000/svg" xmlns:xlink="http://www.w3.org/1999/xlink" width="400" height="400" viewBox="0, 0, 400,400">
<style>
#path0{
    fill:#e4b04c;
    transition:fill ease-out 0.3s;
 }
#path0:hover{fill:#ffffff}
</style>
<g id="svgg"><path id="path0" d="M135.547 0.517 C 27.290 5.645,7.540 22.652,1.416 116.016 C 0.008 137.479,-0.014 262.160,1.386 283.594 C 7.260 373.511,25.211 391.280,117.578 398.617 C 135.342 400.027,264.888 400.007,282.813 398.591 C 362.364 392.305,386.934 375.068,395.644 319.438 C 399.462 295.054,399.610 290.539,399.602 198.438 C 399.595 110.532,399.392 103.239,396.451 85.156 C 391.096 52.235,387.465 43.556,373.083 29.297 C 354.695 11.068,328.102 3.746,269.531 0.785 C 256.318 0.117,148.544 -0.098,135.547 0.517 M261.371 23.092 C 342.826 66.053,381.965 163.741,353.043 251.900 C 345.356 275.331,317.472 323.225,285.445 368.008 C 275.261 382.249,277.115 381.403,265.866 376.945 C 238.931 366.272,212.964 347.018,193.956 323.625 L 188.002 316.299 182.478 316.809 C 170.323 317.932,148.389 314.427,134.794 309.190 L 127.790 306.493 116.044 312.575 C 90.271 325.920,71.428 331.250,50.028 331.250 C 36.854 331.250,36.984 331.394,44.179 324.765 C 57.914 312.109,66.343 292.349,71.140 261.562 L 72.077 255.546 68.808 248.856 C 36.744 183.224,68.783 102.873,136.719 78.547 C 150.243 73.705,171.270 70.318,181.302 71.367 L 185.704 71.827 189.702 66.899 C 202.615 50.983,224.556 33.506,244.141 23.534 C 253.638 18.698,253.069 18.713,261.371 23.092 M245.446 31.645 C 223.587 43.380,187.939 74.666,191.065 79.371 C 192.336 81.284,232.370 139.226,233.288 140.482 C 234.037 141.507,236.146 140.415,247.832 132.950 C 264.182 122.505,261.963 122.673,267.732 131.445 C 294.227 171.737,293.030 224.156,264.737 262.606 C 258.833 270.629,260.562 270.810,244.556 260.498 C 236.767 255.481,230.296 251.506,230.176 251.665 C 229.516 252.535,214.651 274.053,207.039 285.156 C 202.179 292.246,196.677 300.214,194.812 302.863 L 191.422 307.680 196.999 314.973 C 215.162 338.722,253.388 367.302,271.585 370.737 C 276.318 371.630,317.558 308.212,336.827 270.409 C 377.524 190.569,348.931 89.503,271.094 38.066 C 254.482 27.088,254.107 26.995,245.446 31.645 M119.922 181.621 C 102.304 186.340,105.961 213.281,124.219 213.281 C 142.613 213.281,146.186 186.920,128.513 181.601 C 124.155 180.289,124.899 180.287,119.922 181.621 M171.869 181.663 C 166.957 183.178,162.589 187.835,161.254 192.983 C 156.924 209.675,177.478 220.678,188.636 207.642 C 199.057 195.468,187.113 176.963,171.869 181.663 M225.049 181.339 C 221.376 182.039,216.491 185.996,214.411 189.957 C 207.437 203.238,222.540 218.554,235.893 211.741 C 252.820 203.106,243.784 177.770,225.049 181.339 " stroke="none" fill="#000000" fill-rule="evenodd"></path></g></svg>