<svg version="1.2" xmlns="http://www.w3.org/2000/svg" viewBox="0 0 1024 1024" width="1024" height="1024"><style>.a{fill:#e4b04c}</style><path fill-rule="evenodd" class="a" d="m909.2 677c-3.1 64-17.6 120.7-64.5 167.6-46.8 46.8-103.6 61.4-167.6 64.5-55.1 3.1-109.8 2.6-165 2.6-55.1 0-109.8 0.5-165-2.6-64-3.1-120.7-17.6-167.6-64.5-46.8-46.8-61.4-103.6-64.5-167.6-3.1-55.1-2.6-109.9-2.6-165 0-55.1-0.5-109.8 2.6-165 3.1-64 17.6-120.7 64.5-167.6 46.8-46.8 103.6-61.4 167.6-64.5 55.1-3.1 109.8-2.6 165-2.6 55.1 0 109.8-0.5 165 2.6 64 3.1 120.7 17.6 167.6 64.5 46.8 46.8 61.4 103.6 64.5 167.6 3.1 55.1 2.6 109.8 2.6 165 0 55.2 0.6 109.9-2.6 165zm-69.2-165c0-58.3 4.7-183.3-16.1-235.9-7.3-18.2-16.1-31.7-30.2-45.8-14-14.1-27.6-22.9-45.8-30.2-52.6-20.8-177.6-16.1-235.9-16.1-58.3 0-183.3-4.7-235.9 16.1-18.2 7.3-31.7 16.2-45.8 30.2-14.1 14-22.9 27.6-30.2 45.8-20.8 52.6-16.1 177.6-16.1 235.9 0 58.3-4.7 183.2 16.1 235.9 7.3 18.2 16.1 31.7 30.2 45.8 14 14.1 27.6 22.9 45.8 30.2 52.6 20.8 177.6 16.1 235.9 16.1 58.3 0 183.2 4.7 235.8-16.2 18.2-7.3 31.7-16.1 45.8-30.2 14.1-14 22.9-27.6 30.2-45.8 20.9-52.6 16.2-177.5 16.2-235.8zm-96.2-257.7c5.9 2.4 11.1 6 15.6 10.4 4.4 4.5 8 9.7 10.4 15.6 2.4 5.8 3.6 12 3.6 18.3 0 26.6-21.4 47.9-47.9 47.9-26.5 0-47.9-21.4-47.9-47.9 0-26.5 21.4-47.9 47.9-47.9 6.3 0 12.5 1.2 18.3 3.6zm-26.7 257.7c0 113.5-91.6 205.1-205.1 205.1-113.5 0-205.1-91.6-205.1-205.1 0-113.5 91.6-205.1 205.1-205.1 113.5 0 205.1 91.6 205.1 205.1zm-71.8 0c0-73.4-59.9-133.3-133.3-133.3-73.4 0-133.3 59.9-133.3 133.3 0 73.4 59.9 133.3 133.3 133.3 73.4 0 133.3-59.9 133.3-133.3z"/></svg>