<?xml version="1.0" encoding="utf-8"?>
<!-- Generator: Adobe Illustrator 24.1.1, SVG Export Plug-In . SVG Version: 6.00 Build 0)  -->
<svg version="1.1" id="Layer_1" xmlns="http://www.w3.org/2000/svg" xmlns:xlink="http://www.w3.org/1999/xlink" x="0px" y="0px" viewBox="0 0 106 40.55" style="enable-background:new 0 0 106 40.55;" xml:space="preserve">
<defs>
	<linearGradient id="grad1" x1="0%" y1="0%" x2="100%" y2="0%">
		<stop offset="0%" style="stop-color:rgba(0,0,0,0.15);stop-opacity:1" />
		<stop offset="100%" style="stop-color:rgba(0,0,0,0);stop-opacity:1" />
	</linearGradient>
</defs>
<path fill="url(#grad1)" d="M102.52,25.43c-4.57,6.31-11.75,10.12-19.7,10.45c-1.21,0.05-2.42,0.02-3.6-0.09c-2.02-0.87-2.63-1.92-2.6-3.49
	c-1.23,0.61-2.02,1.45-2.17,2.62c-4.15-1.16-7.86-3.3-10.68-6.25c0.11-0.11,0.21-0.22,0.3-0.34c0.59-0.8,0.74-1.7,0.44-2.71
	c1.82-0.37,2.4-3.22,4.09-4.01c-0.46-0.49-1.49-0.45-2.84-0.11c-0.83-3.08-0.9-5.29,0.08-6.32c-0.89-0.54-1.94-0.14-3.04,0.59
	c-0.59-0.71-1.21-1.13-1.85-1.27c0,0,0,0,0,0c1.6-3.88,5.05-7.13,8.92-8.51c2.3,0.14,3.25,0.94,3.74,2.47
	c0.95-0.96,1.43-2,1.21-3.13c2.29,0.22,4.91,1.27,7.27,4.14c0,0,0,0,0,0.01c0.96,5.49-4.88,6.13-2.38,10.19
	c-2.24,1.63-0.48,3.97-2.24,5.21c2.25,0.14,4.25-0.5,5.68-3.01c4.49,0.48,5.28-6.83,0.71-12.45c0,0,0,0,0,0
	c-2.4-3.3-5.51-5.2-8.99-5.51c0.34-1.21-0.16-2.23-0.87-3.23C73.25,2,72.79,2.83,70.08,4.42c-4.76,1.44-9.05,5.47-10.74,10.28
	c0,0,0,0,0,0c-0.16,0.07-0.33,0.16-0.49,0.26c-0.72-1.06-1.6-1.82-3-1.66c-0.25,0.03-0.49,0.09-0.73,0.17c0,0,0,0,0,0
	C47.59,4.62,38.4,0.8,30.18,3.01c-3.65-0.15-4.45-0.7-5.77-1.61c-0.21,1.38-0.16,2.65,1.06,3.64c-3.04,1.87-5.44,4.62-7.02,7.99
	c-0.96,1.5-2.04,2.7-3.57,3.94c-0.36,0.29-0.83,0.41-1.29,0.32l-3.1-0.59c-0.4-0.07-0.8,0.04-1.1,0.31c-2.71,2.47-5.3,3.3-7.79,2.77
	c2.46,3.53,10.09,2.97,15.33-2.34c-0.4,1.72-0.62,3.54-0.64,5.44c0,0,0,0,0,0c-1.34,0.47-2.45,1.77-1.83,3.16
	c-2.94-0.31-3.37,4.95-0.58,5.25c-1.74,2.39,2.6,5.4,4.25,3.12c0.77,1.74,3.02,1.42,4.22,0.3c0,0,0,0,0,0
	c2.68,1.7,5.94,2.59,9.12,2.59c1.49,0,2.97-0.2,4.36-0.6c3.15-0.15,3.99,0.3,5.32,1.02c0.06-1.23-0.09-2.36-1.03-3.19
	c2.73-2.15,4.31-5.42,4.54-9.48c0-0.01,0-0.02,0-0.02c0-0.01,0-0.01,0-0.01c0.78-7.21-3.86-12.91-7.37-10.07
	c-2.56-1.32-4.59-0.77-6.4,0.57c2.16,0.08,1.95,3,4.71,3.14c0.12,4.75,5.36,2.11,7.54,7.24c0,0,0,0,0,0c0,0,0,0,0,0
	c-0.42,3.7-2.04,6-3.85,7.44c-0.44-1.07-1.4-1.68-2.72-1.97c0.42,1.56,0.07,2.74-1.79,4.11c-3.84,0.92-8.3,0.17-11.71-2.01
	c0,0,0,0,0,0c0.08-0.38,0.05-0.78-0.13-1.19c2.94,0.31,3.37-4.95,0.58-5.24c1.74-2.39-2.6-5.4-4.25-3.12
	c-0.32-0.72-0.9-1.09-1.56-1.19c0.07-3.32,0.76-6.37,1.99-9.02c0.01-0.02,0.02-0.04,0.03-0.05l-0.01,0
	c1.42-3.02,3.54-5.51,6.21-7.23c0.42,0.84,1.22,1.4,2.31,1.76c-0.24-1.48,0.16-2.57,1.83-3.66c7.74-2.32,16.53,1.26,23.79,9.71
	c-0.07,0.07-0.15,0.15-0.21,0.23c-0.92,1.07-0.78,2.23-0.3,3.41c-1.51,0.68-2.06,1.91-1.53,3.73c-1.23,0.51-2.14,1.16-2.19,2.19
	c1.39-0.24,3.19,1.06,5.27,3.47c-1.04,0.93-1.65,1.77-1.5,2.42c1.6-0.96,4.28,0.16,5.61-1.14c0.67,0.81,1.51,1.2,2.5,1.15
	c0.35-0.02,0.7-0.09,1.02-0.21c2.99,3.2,6.95,5.53,11.37,6.79c-0.67,1.02-0.54,2.13-0.19,3.29c1.15-1.06,1.86-1.71,5.23-2.35
	c0.9,0.08,1.8,0.13,2.72,0.13c0.39,0,0.79-0.01,1.19-0.02c8.39-0.34,15.97-4.37,20.8-11.04L102.52,25.43z M83.54,19.14
	c-0.72,0.16-1.48-0.2-1.75-0.89c-0.61-1.55,1.73-3.06,2.16-6.26C85.26,15.82,85.28,18.76,83.54,19.14z M38.13,18.71
	c-0.15-0.72,0.29-1.44,0.98-1.7c1.66-0.63,3.24,1.84,4.24,5.77C41.25,20.33,38.47,20.34,38.13,18.71z M18.98,26.54
	c1.45,0.15,2.5,1.46,2.35,2.91c-0.15,1.45-1.45,2.51-2.91,2.36c-1.45-0.15-2.5-1.46-2.35-2.91C16.22,27.44,17.53,26.38,18.98,26.54z
	 M60.99,25.61c-1.12,0.6-2.5,0.17-3.1-0.95c-0.59-1.12-0.26-5.38-0.26-5.38s3.71,2.11,4.31,3.22C62.53,23.62,62.1,25.01,60.99,25.61
	z"/>
</svg>
