<svg id="svg" version="1.1" xmlns="http://www.w3.org/2000/svg" xmlns:xlink="http://www.w3.org/1999/xlink" width="400" height="400" viewBox="0, 0, 400,400">
<style>
#path0{
    fill:#e4b04c;
    transition:fill ease-out 0.3s;
 }
#path0:hover{fill:#ffffff}
</style>
<g id="svgg"><path id="path0" d="M171.351 1.578 C 123.332 8.847,84.167 30.776,49.289 69.922 C 46.336 73.236,45.885 73.583,47.751 71.105 C 64.431 48.961,98.748 23.649,126.758 12.831 C 130.947 11.212,134.375 9.594,134.375 9.235 C 134.375 8.875,133.760 8.929,133.008 9.355 C 132.256 9.781,128.301 11.417,124.219 12.990 C 95.727 23.971,65.663 45.969,46.412 69.922 C 44.340 72.500,42.426 74.785,42.157 75.000 C 32.243 82.943,11.679 127.075,6.300 151.953 C 3.926 162.930,3.969 230.303,6.356 241.323 C 8.136 249.536,12.045 263.160,13.667 266.797 C 14.241 268.086,16.178 272.656,17.970 276.953 C 19.762 281.250,22.516 287.051,24.091 289.844 C 25.665 292.637,27.481 295.952,28.125 297.210 C 37.587 315.687,63.734 344.291,83.573 357.867 C 86.354 359.771,89.076 361.740,89.621 362.242 C 91.637 364.102,110.535 374.523,116.304 376.956 C 119.584 378.340,123.849 380.178,125.782 381.041 C 130.475 383.138,140.365 386.311,148.047 388.186 C 151.484 389.025,155.352 389.972,156.641 390.290 C 159.982 391.116,160.247 391.174,163.281 391.748 C 184.244 395.716,216.960 395.744,236.328 391.811 C 237.617 391.550,239.375 391.196,240.234 391.027 C 245.829 389.921,261.658 385.635,267.473 383.651 L 274.400 381.288 281.926 385.282 C 286.066 387.479,291.738 390.592,294.531 392.200 C 307.665 399.758,308.413 400.000,318.644 400.000 C 330.083 400.000,328.906 403.101,328.906 372.956 L 328.906 348.384 334.180 343.558 C 349.522 329.519,363.871 311.663,372.639 295.703 C 374.056 293.125,376.017 289.609,376.999 287.891 C 382.730 277.853,390.345 256.548,393.644 241.323 C 396.031 230.303,396.074 162.930,393.700 151.953 C 388.321 127.075,367.757 82.943,357.843 75.000 C 357.574 74.785,355.660 72.500,353.588 69.922 C 334.337 45.969,304.273 23.971,275.781 12.990 C 271.699 11.417,267.744 9.781,266.992 9.355 C 266.240 8.929,265.625 8.875,265.625 9.235 C 265.625 9.594,269.053 11.212,273.242 12.831 C 301.252 23.649,335.569 48.961,352.249 71.105 C 354.115 73.583,353.664 73.236,350.711 69.922 C 302.770 16.115,238.100 -8.527,171.351 1.578 M150.781 3.998 C 143.606 5.920,135.034 8.732,135.359 9.056 C 135.558 9.256,136.736 9.026,137.978 8.546 C 139.219 8.066,143.926 6.677,148.438 5.458 C 152.949 4.240,155.938 3.248,155.078 3.254 C 154.219 3.261,152.285 3.595,150.781 3.998 M251.563 5.458 C 256.074 6.677,260.781 8.066,262.022 8.546 C 263.264 9.026,264.429 9.269,264.611 9.087 C 265.277 8.421,246.892 3.046,244.418 3.184 C 243.836 3.216,247.051 4.240,251.563 5.458 M255.626 76.972 C 256.362 77.254,255.455 78.659,252.708 81.495 C 235.413 99.352,238.894 116.923,267.132 154.288 C 313.204 215.253,305.593 276.764,248.047 308.536 C 201.938 333.993,145.643 325.262,109.473 287.044 C 101.035 278.127,100.056 275.751,106.086 278.818 C 132.529 292.270,167.347 280.288,180.748 253.125 C 189.056 236.285,188.803 222.442,179.646 192.761 C 164.588 143.955,175.897 107.936,212.933 86.746 C 224.940 79.876,248.900 74.391,255.626 76.972 M37.788 85.547 C 35.301 89.292,33.253 91.609,34.852 88.867 C 36.312 86.365,39.957 81.250,40.280 81.250 C 40.478 81.250,39.357 83.184,37.788 85.547 M364.322 87.488 C 366.743 91.587,365.187 90.033,362.181 85.352 C 360.596 82.881,360.115 81.821,361.114 82.996 C 362.113 84.171,363.556 86.192,364.322 87.488 M29.297 99.219 C 28.630 100.508,27.909 101.563,27.694 101.563 C 27.479 101.563,27.849 100.508,28.516 99.219 C 29.182 97.930,29.903 96.875,30.118 96.875 C 30.333 96.875,29.963 97.930,29.297 99.219 M371.484 99.219 C 372.151 100.508,372.521 101.563,372.306 101.563 C 372.091 101.563,371.370 100.508,370.703 99.219 C 370.037 97.930,369.667 96.875,369.882 96.875 C 370.097 96.875,370.818 97.930,371.484 99.219 M326.366 384.570 C 326.236 391.553,326.130 385.840,326.130 371.875 C 326.130 357.910,326.236 352.197,326.366 359.180 C 326.495 366.162,326.495 377.588,326.366 384.570 " stroke="none" fill="#000000" fill-rule="evenodd"></path></g></svg>